<?xml version="1.0" encoding="utf-8"?>
<!-- Generator: Adobe Illustrator 24.1.1, SVG Export Plug-In . SVG Version: 6.00 Build 0)  -->
<svg version="1.1" id="Capa_1" xmlns="http://www.w3.org/2000/svg" xmlns:xlink="http://www.w3.org/1999/xlink" x="0px" y="0px"
	 viewBox="0 0 512 512" style="enable-background:new 0 0 512 512;" xml:space="preserve">
<style type="text/css">
	.st0{fill:#17FF53;}
</style>
<g>
	<path class="st0" d="M253.7,53.6c-110.9,0-200.7,89.9-200.7,200.7s89.9,200.7,200.7,200.7s200.7-89.9,200.7-200.7
		S364.5,53.6,253.7,53.6z M253.7,409.6c-85.7,0-155.3-69.5-155.3-155.3c0-85.7,69.5-155.3,155.3-155.3s155.3,69.5,155.3,155.3
		C408.9,340.1,339.4,409.6,253.7,409.6z"/>
	<polygon class="st0" points="204.7,254.3 182.7,244.7 171.2,255.6 180.1,281.8 216.2,317.9 233.9,323.1 347.3,209.2 332.2,189.9 
		302.4,202.9 270,248.4 227.7,274 	"/>
	<g>
		<path d="M229.8,50.2c17-2.3,34.3-2.4,51.4,0c70.6,9.9,123.3,44.5,157.3,107.3c38.8,71.8,34,143.8-8.7,213.2
			c-1.5,2.4-3.4,5.1-5.2,6.5c-4,3.1-9.4,2.2-12,0.3c-2.5-1.9-4.1-7.3-3.1-11.5c0.5-2.1,2.4-4.4,3.7-6.5
			c70.6-109.1,14.6-252.9-111.2-285.7C199.4,47.1,94.5,112,71.8,216.2c-16.3,75.1,13.9,151.9,76.9,195.4
			c62.5,43.2,144.5,44.3,209.1,2.8c11-7.1,15.5-7.3,19.7-1.1c4.2,6.2,1.8,10.8-8.9,17.7C248.8,508,90.3,446.5,53.9,308.8
			C24.2,196.6,95.2,79,208.1,53.9C215.4,52.3,222.9,51.1,229.8,50.2z"/>
		<path d="M261.4,425.2c-103.6-1-179.9-82.2-173.8-179.1c1.1-16.6,6.7-33,10.6-49.4c1.6-6.7,5.7-11.3,13.5-9.1
			c6.4,1.9,7.9,7.5,4.9,16.2c-18.1,51.9-12.1,100.8,22.1,143.9c38.7,48.7,90.6,67.2,151,53c61-14.4,99.5-54.5,111.6-116.3
			c16-81.6-35.3-157.1-116.7-174c-26.8-5.6-53.4-3.2-79.2,6.1c-2.9,1.1-6.5,3.2-8.8,2.3c-3.7-1.4-9-4.6-9.3-7.5
			c-0.4-3.5,3-10.2,5.9-11c17.3-4.9,34.8-10.8,52.5-12c88.6-5.7,164.3,57.1,177.2,145.5c12.3,84-43.6,165.9-127.6,186.3
			C282.2,423.4,268.5,424.2,261.4,425.2z"/>
		<path d="M227.4,263.4c20.4-20.6,39.6-40.1,58.9-59.6c6.2-6.2,12.2-12.5,18.6-18.5c12.4-11.6,30.4-11.4,41.9,0.2
			c11.3,11.3,12.1,29.4,0.4,41.3c-32.9,33.5-66,66.7-99.5,99.5c-11.8,11.6-29.2,10.9-41.2-0.7c-14.2-13.8-28.2-27.8-41.9-42
			c-11.8-12.2-11.7-30.3-0.3-41.9c11.7-12,29.8-12,42.5,0.2C213.5,248.3,219.7,255.3,227.4,263.4z M223.2,312.8
			c3,1.8,6.8,1.6,9.7-0.4c1.6-1.1,3.1-2.2,4.4-3.5c22.1-21.9,44.1-43.9,66.1-65.9c9.2-9.2,18.4-18.4,27.6-27.6
			c4.8-4.7,7.1-10,1.9-15.5c-5.3-5.6-10.6-3.8-15.4,1.2c-2.2,2.2-4.4,4.4-6.6,6.6c-24.2,24.2-48.3,48.5-72.6,72.6
			c-8.6,8.6-12.4,8.5-21.1-0.2c-7.4-7.4-14.9-14.7-22.2-22.2c-4.9-5-10-7.8-16.1-2.2c-4.9,4.5-4.2,10,1.9,16.2
			c12.6,12.6,25.1,25.3,37.9,37.7C219.9,310.8,221.4,311.8,223.2,312.8z"/>
		<path d="M388.9,391.4c3.5-4.3,10-5.2,14.1-1.5c2,1.8,3,4.2,2.8,7.3c-0.3,5.7-4.2,9.5-10,9.3c-6-0.2-10.6-4.3-9.5-10.3
			C386.7,394.5,387.7,392.9,388.9,391.4z"/>
	</g>
</g>
<circle cx="196.2" cy="109.6" r="9.7"/>
</svg>
